<?xml version="1.0" encoding="iso-8859-1"?>
<!-- Generator: Adobe Illustrator 19.0.0, SVG Export Plug-In . SVG Version: 6.00 Build 0)  -->
<svg version="1.1" id="Capa_1" xmlns="http://www.w3.org/2000/svg" xmlns:xlink="http://www.w3.org/1999/xlink" x="0px" y="0px"
	 viewBox="0 0 512 512" style="enable-background:new 0 0 512 512;" xml:space="preserve">
<path style="fill:#18A7FC;" d="M15,257v-75c0-41.353,33.647-75,75-75c-24.814,0-45-20.186-45-45s20.186-45,45-45s45,20.186,45,45
	s-20.186,45-45,45c41.353,0,75,33.647,75,75v75H15z"/>
<path style="fill:#E50027;" d="M347,257v-75c0-41.353,33.647-75,75-75c-24.814,0-45-20.186-45-45s20.186-45,45-45s45,20.186,45,45
	s-20.186,45-45,45c41.353,0,75,33.647,75,75v75H347z"/>
<path style="fill:#0A4EAF;" d="M141.709,270.418c-2.153,1.069-4.438,1.582-6.694,1.582c-5.508,0-10.796-3.032-13.433-8.291
	l-21.709-43.418c-2.549-5.112-7.69-8.291-13.418-8.291H75c-8.291,0-15-6.709-15-15s6.709-15,15-15h11.455
	c17.153,0,32.578,9.536,40.254,24.873l21.709,43.418C152.124,257.703,149.121,266.712,141.709,270.418z"/>
<path style="fill:#063E8B;" d="M376.985,272c-2.256,0-4.541-0.513-6.694-1.582c-7.412-3.706-10.415-12.715-6.709-20.127
	l21.709-43.418C392.967,191.536,408.392,182,425.545,182H437c8.291,0,15,6.709,15,15s-6.709,15-15,15h-11.455
	c-5.728,0-10.869,3.179-13.418,8.291l-21.709,43.418C387.781,268.968,382.493,272,376.985,272z"/>
<path style="fill:#FEDB41;" d="M329.7,54.899c-1.8-5.4-6.299-9.3-11.999-10.199l-33.602-5.4l-14.7-30.601
	C266.7,3.6,261.599,0.298,255.901,0H254.4c-5.999,0-9.6,3.6-11.999,8.399l-15.601,30.3l-33.6,4.499
	c-5.7,0.901-10.499,4.801-12.299,10.201c-1.802,5.4-0.3,11.1,3.6,15.3l24.3,24l-6.301,33.6c-0.901,5.7,1.199,11.4,5.7,14.7
	c4.799,3.6,10.8,3.9,15.899,1.501l30.3-15.601l1.501,0.899l28.499,15.3c2.401,1.201,4.801,1.8,7.2,1.8c3.001,0,6-0.899,8.701-2.699
	c4.499-3.301,6.899-9.001,6-14.7l-5.4-33.602l24.9-23.698C329.7,66.299,331.5,60.298,329.7,54.899z"/>
<path style="fill:#063E8B;" d="M179.883,498.86C178.945,506.36,172.559,512,165,512H15c-8.291,0-15-6.709-15-15V317
	c0-8.291,6.709-15,15-15h172.5c4.307,0,8.394,1.846,11.25,5.068c2.842,3.223,4.175,7.529,3.633,11.792L179.883,498.86z"/>
<path style="fill:#032E68;" d="M512,497c0,8.291-6.709,15-15,15H347c-7.559,0-13.945-5.64-14.883-13.14l-22.5-180
	c-0.542-4.263,0.791-8.569,3.633-11.792c2.856-3.223,6.943-5.068,11.25-5.068H497c8.291,0,15,6.709,15,15V497z"/>
<path style="fill:#0A4EAF;" d="M240,287c0,24.814-20.186,45-45,45H0v-90h195C219.814,242,240,262.186,240,287z"/>
<path style="fill:#063E8B;" d="M512,332H317c-24.814,0-45-20.186-45-45s20.186-45,45-45h195V332z"/>
<path style="fill:#FFCC33;" d="M325.8,70.199l-24.899,23.699l5.4,33.602c0.899,5.698-1.501,11.398-6,14.7
	c-2.701,1.8-5.7,2.699-8.701,2.699c-2.399,0-4.799-0.599-7.2-1.8l-28.499-15.3V0c5.698,0.298,10.8,3.6,13.499,8.699L284.1,39.3
	l33.602,5.4c5.7,0.899,10.199,4.799,11.999,10.199S329.7,66.299,325.8,70.199z"/>
<g>
</g>
<g>
</g>
<g>
</g>
<g>
</g>
<g>
</g>
<g>
</g>
<g>
</g>
<g>
</g>
<g>
</g>
<g>
</g>
<g>
</g>
<g>
</g>
<g>
</g>
<g>
</g>
<g>
</g>
</svg>
